HIERARCHY
ROOT Hips
{
	OFFSET 0.000000 0.000000 0.000000 
	CHANNELS 6 Xposition Yposition Zposition Yrotation Zrotation Xrotation 
	JOINT Lumbar
	{
		OFFSET 0.000000 0.000000 0.000000 
		CHANNELS 3 Zrotation Xrotation Yrotation
		JOINT Neck
		{
			OFFSET 0.000000 0.445665 0.000000 
			CHANNELS 3 Zrotation Xrotation Yrotation
			End Site
			{
				OFFSET 0.000000 0.227535 0.000000 
			}
		}
		JOINT RightShoulder
		{
			OFFSET 0.019635 0.377685 0.194865 
			CHANNELS 3 Zrotation Xrotation Yrotation
			JOINT RightElbow
			{
				OFFSET 0.000000 -0.243375 0.000000 
				CHANNELS 2 Zrotation Yrotation
				JOINT RightWrist
				{
					OFFSET 0.000000 -0.264825 0.000000 
					CHANNELS 2 Zrotation Xrotation
					End Site
					{
						OFFSET 0.006600 -0.176220 0.000990 
					}
				}
			}
		}
		JOINT LeftShoulder
		{
			OFFSET 0.019635 0.377685 -0.194865 
			CHANNELS 3 Zrotation Xrotation Yrotation
			JOINT LeftElbow
			{
				OFFSET 0.000000 -0.243375 0.000000 
				CHANNELS 2 Zrotation Yrotation
				JOINT LeftWrist
				{
					OFFSET 0.000000 -0.264825 0.000000 
					CHANNELS 2 Zrotation Xrotation
					End Site
					{
						OFFSET 0.006600 -0.176220 -0.000990 
					}
				}
			}
		}
	}
	JOINT RightHip
	{
		OFFSET 0.052140 -0.069960 0.075570 
		CHANNELS 3 Zrotation Xrotation Yrotation
		JOINT RightKnee
		{
			OFFSET 0.000000 -0.402270 0.000000 
			CHANNELS 1 Zrotation
			JOINT RightAnkle
			{
				OFFSET 0.000000 -0.404085 0.000000 
				CHANNELS 3 Zrotation Xrotation Yrotation
				End Site
				{
					OFFSET 0.204105 -0.089430 0.008415 
				}
			}
		}
	}
	JOINT LeftHip
	{
		OFFSET 0.052140 -0.069960 -0.075570 
		CHANNELS 3 Zrotation Xrotation Yrotation
		JOINT LeftKnee
		{
			OFFSET 0.000000 -0.402270 0.000000 
			CHANNELS 1 Zrotation
			JOINT LeftAnkle
			{
				OFFSET 0.000000 -0.404085 0.000000 
				CHANNELS 3 Zrotation Xrotation Yrotation
				End Site
				{
					OFFSET 0.204105 -0.089430 -0.008415 
				}
			}
		}
	}
}
MOTION
Frames: 26
Frame Time: 0.02
-0 0.95578 -0 183.6091 0 -2.71528 1.14789 2.60374 -3.47803 -22.87294 3.15746 1.95712 -13.13199 -65.81765 -71.3474 24.18623 82.15122 -18.58168 -2.98997 -1.70834 66.32194 56.72303 20.62251 -78.89413 -27.92982 2.78762 -5.07198 2.70282 3.4978 -5.50851 -1.2284 -3.01332 -6.67824 -2.70854 4.47563 0.33816 -6.88952 5.68688 2.28976 2.06048
0.0001 0.95578 2e-05 183.60908 0 -2.71538 1.1438 2.60102 -3.47518 -22.86947 3.14956 1.95667 -13.07854 -65.80777 -71.28404 24.17988 82.02123 -18.55281 -3.02751 -1.68244 66.31254 56.69282 20.61127 -78.89514 -27.90684 2.7811 -5.06001 2.69899 3.45159 -5.52109 -1.21473 -2.99207 -6.62679 -2.70126 4.4743 0.33948 -6.89235 5.68729 2.29988 2.05922
0.0002 0.95578 4e-05 183.60908 0 -2.71547 1.13969 2.5983 -3.47233 -22.86594 3.14175 1.95624 -13.02543 -65.79797 -71.22096 24.17352 81.89229 -18.52415 -3.06484 -1.65664 66.30309 56.66258 20.6001 -78.89609 -27.88397 2.77474 -5.04808 2.69519 3.40576 -5.53365 -1.20113 -2.971 -6.57574 -2.69399 4.47299 0.3408 -6.89517 5.6877 2.30996 2.05795
0.0003 0.95577 6e-05 183.60908 0 -2.71558 1.1355 2.59551 -3.46946 -22.86215 3.13421 1.95596 -12.97324 -65.78842 -71.15842 24.16706 81.76615 -18.49618 -3.10182 -1.63102 66.29331 56.63193 20.58912 -78.89693 -27.86135 2.76884 -5.0361 2.69146 3.36089 -5.54632 -1.18768 -2.95049 -6.52566 -2.68671 4.47169 0.34219 -6.89805 5.68812 2.32 2.0566
0.00041 0.95577 8e-05 183.60901 0 -2.71565 1.13174 2.59307 -3.46667 -22.85976 3.12522 1.95497 -12.91627 -65.77757 -71.09306 24.16111 81.62503 -18.46471 -3.14081 -1.60449 66.28526 56.60345 20.57716 -78.8985 -27.83746 2.76037 -5.02428 2.68738 3.31082 -5.55846 -1.17344 -2.92708 -6.47025 -2.67949 4.47028 0.34328 -6.9007 5.68851 2.33025 2.05564
0.00051 0.95577 0.0001 183.60913 0 -2.71579 1.12707 2.58988 -3.46375 -22.8544 3.11931 1.95544 -12.86941 -65.76948 -71.03369 24.15411 81.51584 -18.44057 -3.17542 -1.57988 66.27354 56.57043 20.56725 -78.8984 -27.81624 2.75744 -5.01219 2.68403 3.27186 -5.57166 -1.1609 -2.90978 -6.42631 -2.67215 4.46911 0.34497 -6.90381 5.68895 2.34005 2.05385
0.0006 0.95577 0.00012 183.60939 0 -2.71622 1.11986 2.58452 -3.4602 -22.84039 3.12211 1.96033 -12.85064 -65.76893 -70.99036 24.14364 81.49419 -18.43762 -3.19902 -1.56039 66.25114 56.52337 20.56326 -78.895 -27.80236 2.76939 -4.99865 2.68269 3.26349 -5.58875 -1.15263 -2.90973 -6.41325 -2.66427 4.46865 0.34874 -6.9084 5.68951 2.349 2.04983
0.00069 0.95576 0.00013 183.60991 0 -2.71672 1.11173 2.57841 -3.45659 -22.82346 3.128 1.96662 -12.84199 -65.7712 -70.95314 24.13221 81.50483 -18.44193 -3.21803 -1.54286 66.2251 56.47197 20.56128 -78.88986 -27.79119 2.78695 -4.98496 2.6821 3.2666 -5.60676 -1.14615 -2.91579 -6.41216 -2.65629 4.46843 0.35305 -6.91341 5.69011 2.35744 2.04495
0.00078 0.95576 0.00015 183.61059 0 -2.71715 1.10404 2.57269 -3.4532 -22.80808 3.13234 1.97201 -12.82858 -65.77224 -70.91344 24.12159 81.50119 -18.44226 -3.23848 -1.52453 66.20103 56.42347 20.55818 -78.88442 -27.7788 2.80235 -4.97178 2.68116 3.26419 -5.62374 -1.13911 -2.91877 -6.40579 -2.64847 4.46807 0.35687 -6.9181 5.69073 2.36589 2.04042
0.00088 0.95576 0.00016 183.61012 0 -2.71775 1.09629 2.56674 -3.44897 -22.79163 3.13726 1.97848 -12.81594 -65.77302 -70.87252 24.10941 81.49611 -18.44533 -3.26165 -1.50579 66.17563 56.37099 20.55592 -78.88278 -27.76632 2.81647 -4.95675 2.6802 3.26204 -5.64329 -1.131 -2.92293 -6.39774 -2.64016 4.46782 0.36174 -6.92335 5.69125 2.37528 2.03606
0.00096 0.95576 0.00018 183.61206 0 -2.71802 1.08842 2.5611 -3.44648 -22.77686 3.14173 1.98305 -12.80399 -65.77506 -70.83555 24.10023 81.50141 -18.4446 -3.27806 -1.48843 66.15212 56.32585 20.55242 -78.8738 -27.75472 2.83412 -4.94553 2.67954 3.26337 -5.6577 -1.12556 -2.92617 -6.3973 -2.63289 4.46739 0.36453 -6.92752 5.69192 2.38258 2.03116
0.001 0.95576 0.00019 183.62107 0 -2.71737 1.08048 2.55655 -3.44886 -22.76645 3.14395 1.98189 -12.79254 -65.77927 -70.80832 24.09958 81.52999 -18.43004 -3.27702 -1.47388 66.1349 56.30127 20.54465 -78.83638 -27.74459 2.86431 -4.9448 2.67889 3.25965 -5.65769 -1.12695 -2.92459 -6.40329 -2.6282 4.46639 0.36168 -6.92886 5.69355 2.38423 2.02478
0.00102 0.95576 0.00021 183.63242 0 -2.7164 1.07244 2.55234 -3.45298 -22.75804 3.14564 1.9788 -12.78125 -65.78473 -70.7848 24.10197 81.56746 -18.4117 -3.26936 -1.46076 66.1197 56.28437 20.53562 -78.79307 -27.73531 2.89718 -4.94791 2.6786 3.2607 -5.65248 -1.13098 -2.92198 -6.41814 -2.62462 4.4652 0.35669 -6.92907 5.69524 2.38381 2.01794
0.00105 0.95576 0.00022 183.64238 0 -2.71561 1.06444 2.54796 -3.45624 -22.74936 3.14775 1.97669 -12.76921 -65.79002 -70.75933 24.10297 81.5992 -18.39614 -3.26465 -1.44733 66.10342 56.26446 20.52741 -78.75833 -27.72584 2.92597 -4.9493 2.67856 3.268 -5.64966 -1.13389 -2.92035 -6.43729 -2.62076 4.46411 0.3525 -6.92961 5.6965 2.38433 2.01142
0.00108 0.95576 0.00024 183.65369 0 -2.71467 1.05643 2.54362 -3.45976 -22.73782 3.14926 1.97421 -12.76037 -65.7938 -70.7351 24.10401 81.63912 -18.37641 -3.25993 -1.43253 66.08761 56.24237 20.51824 -78.69938 -27.71564 2.96666 -4.95059 2.67689 3.24239 -5.64673 -1.13655 -2.91689 -6.42399 -2.61599 4.46297 0.34901 -6.93087 5.69939 2.3848 2.00437
0.0011 0.95576 0.00025 183.66275 0 -2.71396 1.04842 2.5393 -3.46317 -22.73281 3.1518 1.97201 -12.74477 -65.8009 -70.7092 24.10564 81.66376 -18.36429 -3.25386 -1.42091 66.07146 56.22667 20.51072 -78.68856 -27.70712 2.98358 -4.953 2.67857 3.28351 -5.64281 -1.1403 -2.9168 -6.47735 -2.61334 4.46188 0.34359 -6.93043 5.69899 2.38492 1.99839
0.00109 0.95576 0.00026 183.66489 0 -2.71394 1.04049 2.53491 -3.46589 -22.74496 3.15766 1.97128 -12.71038 -65.81763 -70.67673 24.10856 81.64337 -18.37491 -3.24443 -1.41766 66.0528 56.2269 20.5083 -78.82027 -27.70306 2.93037 -4.95764 2.69057 3.53207 -5.63731 -1.14668 -2.9273 -6.73775 -2.61655 4.46089 0.33288 -6.92494 5.68869 2.38443 1.99488
0.00106 0.95576 0.00027 183.66472 0 -2.71415 1.03254 2.53055 -3.46845 -22.76366 3.1645 1.97086 -12.66916 -65.83751 -70.64257 24.11192 81.60729 -18.39314 -3.23411 -1.41755 66.0339 56.23323 20.50755 -78.99919 -27.70064 2.85384 -4.96325 2.70573 3.84328 -5.63103 -1.15399 -2.94103 -7.06048 -2.62179 4.45995 0.32034 -6.91792 5.67522 2.3837 1.9926
0.00104 0.95576 0.00028 183.66565 0 -2.71425 1.02459 2.5262 -3.47105 -22.77965 3.17061 1.97017 -12.63101 -65.85542 -70.60985 24.11476 81.5786 -18.40734 -3.22508 -1.41608 66.01589 56.23675 20.50587 -79.151 -27.69744 2.79045 -4.96838 2.71868 4.10946 -5.62517 -1.16069 -2.95258 -7.33775 -2.62594 4.45902 0.30896 -6.912 5.66372 2.3832 1.99014
0.00102 0.95576 0.00029 183.66637 0 -2.71439 1.01676 2.52175 -3.47382 -22.79471 3.17785 1.96998 -12.59287 -65.87562 -70.57453 24.11893 81.54898 -18.42384 -3.21218 -1.4145 65.99486 56.24095 20.50482 -79.32611 -27.69441 2.71637 -4.97385 2.73487 4.44464 -5.61881 -1.16833 -2.96707 -7.68643 -2.63091 4.45795 0.29624 -6.90427 5.64999 2.38213 1.98601
0.00099 0.95575 0.0003 183.66704 0 -2.71449 1.00857 2.51753 -3.47623 -22.8131 3.18305 1.96881 -12.55326 -65.8918 -70.54407 24.12053 81.51762 -18.43737 -3.20709 -1.41374 65.97979 56.24478 20.50293 -79.46447 -27.69138 2.65903 -4.97875 2.74512 4.65227 -5.61345 -1.17414 -2.97626 -7.90261 -2.63455 4.45717 0.28573 -6.90005 5.64015 2.38222 1.9857
0.00095 0.95576 0.00029 183.66729 0 -2.71447 1.00017 2.51381 -3.47714 -22.84021 3.1818 1.96508 -12.50966 -65.89608 -70.52809 24.11414 81.48407 -18.44133 -3.22486 -1.41563 65.98304 56.24864 20.49788 -79.48575 -27.68824 2.65327 -4.98212 2.7376 4.48057 -5.61026 -1.17497 -2.96956 -7.72415 -2.63467 4.45729 0.28343 -6.9052 5.64176 2.38542 1.99539
0.00089 0.95576 0.00028 183.66774 0 -2.7144 0.99127 2.51033 -3.4778 -22.87027 3.17858 1.96032 -12.46501 -65.89622 -70.51682 24.10546 81.44979 -18.442 -3.25034 -1.418 65.9919 56.25141 20.49215 -79.46928 -27.68495 2.66522 -4.9848 2.72408 4.1805 -5.60827 -1.17385 -2.95751 -7.41265 -2.63325 4.45767 0.28312 -6.91408 5.6474 2.38981 2.00892
0.00085 0.95576 0.00027 183.66859 0 -2.71435 0.98208 2.50682 -3.47891 -22.8982 3.17661 1.95592 -12.42201 -65.89828 -70.50306 24.09816 81.4162 -18.44382 -3.27168 -1.41937 65.99707 56.25299 20.48684 -79.47268 -27.68156 2.66927 -4.98759 2.7137 3.94694 -5.60621 -1.17345 -2.94824 -7.17088 -2.63214 4.45785 0.28082 -6.92173 5.65125 2.39375 2.02091
0.00079 0.95577 0.00025 183.66716 0 -2.71433 0.97503 2.50299 -3.47854 -22.92957 3.17314 1.95204 -12.37425 -65.90027 -70.49111 24.08878 81.37929 -18.4472 -3.29579 -1.42416 66.00727 56.2619 20.48054 -79.46596 -27.67905 2.67188 -4.99128 2.70172 3.68116 -5.60204 -1.17383 -2.93761 -6.89222 -2.63278 4.45842 0.28302 -6.92739 5.65485 2.39734 2.03218
0.00075 0.95577 0.00025 183.67071 0 -2.71421 0.96345 2.49985 -3.48128 -22.95456 3.17238 1.94676 -12.33574 -65.90139 -70.47602 24.08401 81.35088 -18.44666 -3.31582 -1.42192 66.00804 56.25523 20.47684 -79.47114 -27.67448 2.68199 -4.9929 2.69158 3.45106 -5.60265 -1.17207 -2.92848 -6.65792 -2.62935 4.45819 0.27636 -6.93809 5.65992 2.4019 2.04571
